<svg xmlns="http://www.w3.org/2000/svg" viewBox="0 0 319.66 306.32"><defs><style>.cls-1{fill:#fff;}</style></defs><g id="Layer_2" data-name="Layer 2"><g id="Layer_1-2" data-name="Layer 1"><path class="cls-1" d="M60.75,81.33c1.49-12.24,2.08-23.68,4.45-34.75A62,62,0,0,1,86.64,11.26c21.3-17.7,49.53-14.25,68.24,8.37,1.63,2,3.15,4.05,5.44,7,1.9-2.32,3.44-4.19,5-6.07,23.8-29.47,62.15-26.82,81.89,5.62C256,40.63,259.25,56.43,259,73.13c0,2.07-.12,4.14-.08,6.21,0,.45.47.89.79,1.46a5.42,5.42,0,0,0,2.11.43c26.54-5.3,50.42,13.38,56.12,43.9,4.94,26.46-.58,50.85-19.12,71-6,6.51-14.2,11-22.28,17.11l2.17,6.85c14.59,46.46-18.87,89.9-67.3,86-14.78-1.19-29.17-6.8-43.83-9.93a35.15,35.15,0,0,0-13.25-.21c-16.28,2.9-32.41,8.62-48.71,9.08-48.6,1.37-78.05-39.56-63.28-85.9.69-2.17,1.34-4.36,2.2-7.2A62.86,62.86,0,0,1,9.19,179.4C-.71,158.88-3,137.68,4.33,115.86,12.74,91,31.28,79,57.45,81.31,58.68,81.42,59.94,81.33,60.75,81.33ZM57,206.45c-1.93,4.18-3.72,7.9-5.38,11.68C38,249,53.57,295.32,100.42,297c17.72.64,34.7-2.83,51-9.33,6.87-2.74,12.47-1.81,19.26.29,13.8,4.26,27.95,9,42.2,9.9,44.61,2.88,73.54-40,55.75-81.07-1.51-3.47-3.07-6.91-4.54-10.2,6.39-2.56,12.5-4.22,17.81-7.27C312.12,182,321.28,129.82,299,103c-11-13.31-25.82-17.29-42-11.3l-9.3,3.42c.82-4.87,1.45-8.14,1.92-11.43,2.94-20.57,0-39.95-12.43-57.11C223.14,7,199.88,2.22,182.1,16.1c-6.72,5.25-11.34,13.26-16.68,20.19-1.79,2.34-2.82,5.26-4.64,8.75-4.58-7.37-8-14.08-12.51-19.91C131.43,3.42,104.68,2.38,86.6,23,71.14,40.71,68,61.89,71.4,84.47c.5,3.26,1,6.52,1.59,10.66-2.67-.74-4.46-.93-6-1.68-25.52-12.83-46.55,3.2-54.38,23.67C-1.56,154.25,17.48,193.65,57,206.45Z"/><path class="cls-1" d="M105.68,286.66c-18.49-.27-33.75-5.29-42.4-22.2-8.92-17.45-8.69-35.53,2.93-50.95,20.05-26.59,42.82-50.81,70.68-69.74,14.59-9.92,28.71-10.09,43.48-.37,28.09,18.49,51.9,41.79,72.61,67.81,20.59,25.87,9.16,64.5-20.22,74.14-11.76,3.87-23.72,3.19-35.38,0-10.24-2.76-20.08-7-30.3-9.9-3.84-1.09-8.69-1.44-12.3-.07C138.63,281.51,122.3,286.34,105.68,286.66Z"/><path class="cls-1" d="M152.41,71c-.66,15.38-4.19,30.05-15.88,41.51s-27.76,11.53-39.73.25C75.46,92.68,75.33,48,96.54,27.63,108.69,16,124.81,16,136.82,28,148.62,39.71,152,54.7,152.41,71Z"/><path class="cls-1" d="M240,73.76a56.82,56.82,0,0,1-12.18,34.95c-13.07,16.53-33.11,16.68-46.63.56-16.87-20.11-16.84-58.37.06-78.39,13.48-16,32.7-16,46.09.1C236.74,42.28,240,55.73,240,73.76Z"/><path class="cls-1" d="M301.82,141.88c-1.64,15.79-5.91,30-16.68,41.53-16.54,17.76-40,13.51-48.29-9.24-8.51-23.33-4.72-45.28,11.93-63.84,15.8-17.6,38.37-13.49,47.41,8.35C299.2,125.94,300,134.12,301.82,141.88Z"/><path class="cls-1" d="M17.18,140.77c3.19-9.41,5.05-19.57,9.87-28.06,8.52-15,25.8-17.34,39.44-6.72,20.11,15.67,26.88,51.7,13.86,73.73-9.75,16.49-27.73,19.59-42.22,6.91C24.53,174.74,19.63,159,17.18,140.77Z"/></g></g></svg>